<svg width="38" height="54" viewBox="0 0 38 54" fill="none" xmlns="http://www.w3.org/2000/svg">
<path d="M19.5342 27.2349H18.4661C4.11541 27.2349 0.77373 33.8593 0 36.6991C6.77901 48.8443 8.54957 53.9871 18.9654 54H19.0336C29.4487 53.9855 31.2196 48.8443 37.9986 36.6991C37.2259 33.8577 33.8849 27.2349 19.5342 27.2349Z" fill="url(#paint0_linear_128_212)"/>
<path d="M18.1345 24.7788L10.6771 27.5717C10.6771 27.5717 9.90137 30.2906 9.90137 35.9937C11.5577 38.8448 12.6055 40.8731 12.6055 40.8731L14.3876 46.8923L18.1298 53.9661H19.8537L23.5956 46.8923L25.3777 40.8731C25.3777 40.8731 26.4222 38.8454 28.0818 35.9937C28.0818 30.2906 27.3061 27.5717 27.3061 27.5717L19.8493 24.7788H18.1345Z" fill="url(#paint1_radial_128_212)"/>
<path d="M25.8451 29.5961L25.1586 31.0509L23.409 31.9273H18.99H15.1312L12.7505 31.3395L12.1346 29.7325V22.6402H25.8451V29.5961Z" fill="url(#paint2_radial_128_212)"/>
<path d="M18.1886 31.9282C18.1886 31.9282 16.4255 33.0915 16.0591 35.8954C15.9039 36.2586 15.6108 35.8954 15.6108 35.8954C15.6108 35.8954 12.3591 33.2133 10.4523 28.0156C11.3497 25.7643 11.6861 25.4431 11.6861 25.4431C11.6861 25.4431 11.948 25.2638 12.1343 25.4431C12.2513 25.7097 13.7047 29.5153 18.1886 31.9282Z" fill="url(#paint3_radial_128_212)"/>
<path d="M19.7908 31.9282C19.7908 31.9282 21.5532 33.0915 21.9203 35.8954C22.0755 36.2586 22.3696 35.8954 22.3696 35.8954C22.3696 35.8954 25.6203 33.2133 27.5261 28.0156C26.6296 25.7643 26.294 25.4431 26.294 25.4431C26.294 25.4431 26.0317 25.2638 25.8444 25.4431C25.7302 25.7097 24.276 29.5153 19.7908 31.9282Z" fill="url(#paint4_radial_128_212)"/>
<path d="M30.5091 14.4985C30.4568 14.4873 30.4037 14.4801 30.3502 14.4769C30.1542 7.12769 25.1437 1.24072 18.9893 1.24072C12.835 1.24072 7.82789 7.12769 7.62981 14.4769C7.57644 14.4801 7.52343 14.4873 7.47127 14.4985C6.55186 14.6992 6.08066 16.0047 6.41732 17.4152C6.74149 18.7685 7.69166 19.7211 8.58066 19.6177C10.7369 24.8665 16.005 28.6127 18.989 28.6127C22.2462 28.6127 27.3584 24.8694 29.4359 19.6242C30.3147 19.6979 31.2436 18.7494 31.5624 17.4152C31.8991 16.0047 31.4275 14.6992 30.5091 14.4985Z" fill="url(#paint5_radial_128_212)"/>
<path d="M18.8356 53.9654C18.8356 53.9654 17.8553 52.3368 15.8272 47.6729C15.986 42.6222 17.6772 36.0292 17.6772 36.0292C17.6772 36.0292 16.8882 35.3299 16.9883 34.3085C17.4913 32.5874 18.4969 32.2578 18.4969 32.2578H19.5495C19.5495 32.2578 20.5554 32.5874 21.0581 34.3085C21.1595 35.3299 20.3702 36.0292 20.3702 36.0292C20.3702 36.0292 22.0603 42.6213 22.2192 47.6729C20.191 52.3368 19.2108 53.9654 19.2108 53.9654H18.8356Z" fill="url(#paint6_radial_128_212)"/>
<path d="M27.5447 28.0411C27.5447 28.0411 27.9503 38.3664 19.7492 53.957C20.9414 53.957 20.959 53.9386 20.959 53.9386C20.959 53.9386 24.1662 51.8333 28.3012 44.7937C24.9379 41.8289 25.1883 42.0997 25.1883 42.0997L31.1037 39.268C31.1037 39.268 31.2024 33.6192 27.5447 28.0411Z" fill="url(#paint7_linear_128_212)"/>
<path d="M10.4364 28.0411C10.4364 28.0411 10.0308 38.3664 18.2312 53.957C17.1549 53.936 16.9926 53.9169 16.9926 53.9169C16.9926 53.9169 13.8153 51.8333 9.67889 44.7927C13.0425 41.8279 12.7921 42.0987 12.7921 42.0987L6.875 39.267C6.875 39.267 6.77832 33.6192 10.4364 28.0411Z" fill="url(#paint8_linear_128_212)"/>
<path d="M27.5443 28.041C27.5443 28.041 30.5753 33.5887 30.5753 38.9916C26.9521 40.8383 24.9304 41.8498 24.9304 41.8498L24.86 42.0582C24.8391 42.1228 24.8188 42.1875 24.7972 42.2505L24.7482 42.3991L27.7735 44.9477C27.7735 44.9477 24.8922 50.1794 20.9688 53.931C20.9688 53.931 24.1664 51.8338 28.3014 44.7933C25.6733 42.4763 25.2518 42.1354 25.1916 42.0967L31.104 39.2676C31.104 39.2676 31.202 33.6191 27.5443 28.041Z" fill="url(#paint9_linear_128_212)"/>
<path d="M10.4364 28.0411C10.4364 28.0411 7.40569 33.5888 7.40569 38.9917C11.0279 40.8385 13.0506 41.8499 13.0506 41.8499L13.1183 42.0583C13.1392 42.123 13.1612 42.1876 13.1815 42.2506L13.2312 42.3992L10.2052 44.9478C10.2052 44.9478 13.0746 50.164 16.9987 53.9169C16.9987 53.9169 13.8146 51.8333 9.67889 44.7927C12.3073 42.4758 12.7285 42.1349 12.7887 42.0961L6.875 39.267C6.875 39.267 6.77832 33.6192 10.4364 28.0411Z" fill="url(#paint10_linear_128_212)"/>
<path d="M31.3447 8.17995C30.8894 6.1516 29.1814 6.22463 29.1814 6.22463C29.1814 6.22463 30.1569 3.95974 27.3543 2.06064C22.6504 -1.195 16.4444 -0.249164 11.9913 2.51207C10.1116 3.67538 8.33762 4.8445 7.03387 5.26135C5.24912 5.83008 4.25601 5.40385 4.25601 5.40385C4.25601 5.40385 4.4088 7.2952 6.86858 8.52571C6.56774 10.6042 7.37561 14.0126 8.33221 16.7739C9.18436 16.1189 7.87351 13.4197 9.16239 11.707C9.37365 11.3781 9.92429 10.8171 10.0625 9.35845C22.2874 10.7761 28.3363 7.02925 28.3363 7.02925C28.2565 7.62397 28.2146 8.22278 28.2109 8.82236C28.2109 10.1553 29.0438 11.3936 29.2544 11.8001C30.2072 13.632 29.1462 16.1625 29.9433 16.7739C30.9539 13.8533 31.8014 10.2077 31.3447 8.17995Z" fill="url(#paint11_linear_128_212)"/>
<path d="M17.4003 6.40109C18.5236 5.95096 17.69 5.63913 18.6686 5.60455C19.6471 5.56997 20.0812 6.05436 20.6629 5.01611C21.2446 3.97786 22.1117 5.36284 22.8005 4.5314C23.4894 3.69996 22.9445 2.59256 25.0453 3.07727C27.1461 3.56198 27.401 2.66203 26.7131 2.1421C24.038 0.411683 21.3501 2.1117e-06 19.2216 0.0601062C16.6486 0.290505 14.1219 1.19336 11.993 2.51274C10.1133 3.67605 8.33933 4.84517 7.03558 5.26202C5.25083 5.83075 4.25772 5.40453 4.25772 5.40453L4.26245 5.43942C8.79768 8.59295 16.4373 6.78724 17.4003 6.40109Z" fill="url(#paint12_linear_128_212)"/>
<defs>
<linearGradient id="paint0_linear_128_212" x1="31.6621" y1="48.2937" x2="5.49709" y2="27.5707" gradientUnits="userSpaceOnUse">
<stop stop-color="#231F20"/>
<stop offset="0.65" stop-color="#505051"/>
<stop offset="1" stop-color="#636567"/>
</linearGradient>
<radialGradient id="paint1_radial_128_212" cx="0" cy="0" r="1" gradientUnits="userSpaceOnUse" gradientTransform="translate(19.9683 40.0873) scale(10.9846 11.1971)">
<stop stop-color="#F1F1F1"/>
<stop offset="0.4" stop-color="#F1F1F1"/>
<stop offset="1" stop-color="#D1D2D3"/>
</radialGradient>
<radialGradient id="paint2_radial_128_212" cx="0" cy="0" r="1" gradientUnits="userSpaceOnUse" gradientTransform="translate(1.91829 14.613) scale(25.7909 24.6555)">
<stop stop-color="#FDD6C0"/>
<stop offset="0.45" stop-color="#FCB886"/>
<stop offset="1" stop-color="#D19878"/>
</radialGradient>
<radialGradient id="paint3_radial_128_212" cx="0" cy="0" r="1" gradientUnits="userSpaceOnUse" gradientTransform="translate(15.1173 30.5995) rotate(180) scale(6.66307 6.36974)">
<stop stop-color="#F1F1F1"/>
<stop offset="0.4" stop-color="#F1F1F1"/>
<stop offset="1" stop-color="#BCBDBF"/>
</radialGradient>
<radialGradient id="paint4_radial_128_212" cx="0" cy="0" r="1" gradientUnits="userSpaceOnUse" gradientTransform="translate(22.8823 30.6066) scale(6.66307 6.36974)">
<stop stop-color="#F1F1F1"/>
<stop offset="0.4" stop-color="#F1F1F1"/>
<stop offset="1" stop-color="#BCBDBF"/>
</radialGradient>
<radialGradient id="paint5_radial_128_212" cx="0" cy="0" r="1" gradientUnits="userSpaceOnUse" gradientTransform="translate(18.865 16.1241) scale(13.0501 12.4756)">
<stop stop-color="#F7C8AE"/>
<stop offset="0.45" stop-color="#F8BC90"/>
<stop offset="0.99" stop-color="#D6916A"/>
</radialGradient>
<radialGradient id="paint6_radial_128_212" cx="0" cy="0" r="1" gradientUnits="userSpaceOnUse" gradientTransform="translate(6.46332 27.1051) rotate(180) scale(28.4132 27.1624)">
<stop stop-color="#EC2227"/>
<stop offset="0.4" stop-color="#EC2227"/>
<stop offset="1" stop-color="#9C1D20"/>
</radialGradient>
<linearGradient id="paint7_linear_128_212" x1="31.2644" y1="50.6751" x2="10.5101" y2="21.8365" gradientUnits="userSpaceOnUse">
<stop stop-color="#231F20"/>
<stop offset="0.65" stop-color="#505051"/>
<stop offset="1" stop-color="#636567"/>
</linearGradient>
<linearGradient id="paint8_linear_128_212" x1="6.57796" y1="50.9099" x2="27.3324" y2="22.0757" gradientUnits="userSpaceOnUse">
<stop stop-color="#231F20"/>
<stop offset="0.65" stop-color="#505051"/>
<stop offset="1" stop-color="#636567"/>
</linearGradient>
<linearGradient id="paint9_linear_128_212" x1="26.0253" y1="47.3139" x2="26.0253" y2="25.907" gradientUnits="userSpaceOnUse">
<stop stop-color="#231F20"/>
<stop offset="0.65" stop-color="#505051"/>
<stop offset="1" stop-color="#636567"/>
</linearGradient>
<linearGradient id="paint10_linear_128_212" x1="12.0259" y1="47.4197" x2="12.0259" y2="26.0265" gradientUnits="userSpaceOnUse">
<stop stop-color="#231F20"/>
<stop offset="0.65" stop-color="#505051"/>
<stop offset="1" stop-color="#636567"/>
</linearGradient>
<linearGradient id="paint11_linear_128_212" x1="17.5459" y1="8.31353" x2="10.1897" y2="-5.00401" gradientUnits="userSpaceOnUse">
<stop stop-color="#4A2816"/>
<stop offset="0.18" stop-color="#58311E"/>
<stop offset="0.51" stop-color="#6D3F2A"/>
<stop offset="0.73" stop-color="#75442E"/>
<stop offset="1" stop-color="#75442E"/>
</linearGradient>
<linearGradient id="paint12_linear_128_212" x1="24.6389" y1="7.43947" x2="6.23504" y2="-0.425134" gradientUnits="userSpaceOnUse">
<stop stop-color="#4A2816"/>
<stop offset="0.18" stop-color="#58311E"/>
<stop offset="0.51" stop-color="#6D3F2A"/>
<stop offset="0.73" stop-color="#75442E"/>
<stop offset="1" stop-color="#75442E"/>
</linearGradient>
</defs>
</svg>
